<svg xmlns="http://www.w3.org/2000/svg"  viewBox="0 0 100 100" width="400px" height="400px" baseProfile="basic"><path fill="#40a6dd" d="M41.363,17h14.304c2.377,0,4.57,1.278,5.742,3.346l24.42,43.094c1.084,1.913,1.144,4.239,0.161,6.205	L79.313,83L41.363,17z"/><polygon fill="#40a6dd" points="34.763,28.55 18.263,56.6 52.913,56.6"/><polygon fill="#40a6dd" points="13.313,68.15 21.563,83 67.763,83 59.513,68.15"/><path fill="#1f212b" d="M86.699,62.947l-24.42-43.095C60.932,17.477,58.398,16,55.667,16H41.363	c-0.357,0-0.687,0.19-0.865,0.499c-0.179,0.31-0.18,0.69-0.002,0.999l37.95,66C78.625,83.81,78.956,84,79.313,84h0.029	c0.368-0.011,0.7-0.224,0.865-0.553l6.677-13.354C88.02,67.825,87.95,65.153,86.699,62.947z M85.096,69.198l-0.013,0.026	L62.25,28.93c-0.137-0.242-0.444-0.327-0.681-0.188c-0.24,0.136-0.325,0.44-0.188,0.681l23.164,40.879l-5.292,10.586L43.092,18	h11.817l4.712,8.316c0.092,0.163,0.261,0.254,0.435,0.254c0.084,0,0.169-0.021,0.246-0.065c0.24-0.136,0.325-0.44,0.188-0.681	l-4.418-7.797c1.855,0.136,3.542,1.179,4.467,2.812l24.42,43.095C85.881,65.56,85.932,67.527,85.096,69.198z M18.263,57.6h34.65	c0.366,0,0.703-0.2,0.879-0.522c0.175-0.321,0.16-0.713-0.039-1.021l-18.15-28.05c-0.188-0.291-0.531-0.436-0.861-0.457	c-0.347,0.008-0.665,0.194-0.841,0.493l-16.5,28.05c-0.182,0.309-0.184,0.692-0.006,1.003C17.572,57.407,17.904,57.6,18.263,57.6z M34.804,30.453L51.075,55.6H20.011L34.804,30.453z M60.387,67.665c-0.176-0.317-0.511-0.515-0.874-0.515H13.313	c-0.354,0-0.683,0.188-0.862,0.493c-0.18,0.305-0.184,0.683-0.012,0.992l8.25,14.85C20.865,83.803,21.2,84,21.563,84h46.199	c0.354,0,0.683-0.188,0.862-0.493c0.18-0.305,0.184-0.683,0.012-0.992L60.387,67.665z M22.152,82l-1.111-2H35.5	c0.276,0,0.5-0.224,0.5-0.5S35.776,79,35.5,79H20.485l-5.473-9.85h43.911L64.397,79H44.5c-0.276,0-0.5,0.224-0.5,0.5	s0.224,0.5,0.5,0.5h20.452l1.111,2H22.152z M40.5,79h-2c-0.276,0-0.5,0.224-0.5,0.5s0.224,0.5,0.5,0.5h2c0.276,0,0.5-0.224,0.5-0.5	S40.776,79,40.5,79z"/></svg>